<?xml version="1.0" encoding="UTF-8"?>
<svg width="129px" height="42px" viewBox="0 0 129 42" version="1.1" xmlns="http://www.w3.org/2000/svg" xmlns:xlink="http://www.w3.org/1999/xlink">
    <title>passsport_logo</title>
    <g id="----" stroke="none" stroke-width="1" fill="none" fill-rule="evenodd">
        <g id="Header-(Mobile)" transform="translate(-183.000000, -19.000000)" fill-rule="nonzero">
            <g id="passsport_logo" transform="translate(183.000000, 19.000000)">
                <path d="M1.27574077,26.5141114 L1.1562734,26.4876039 C1.32036629,26.5685216 1.49189527,26.6321646 1.66827639,26.6775742 L1.70240992,26.6775742 L1.75361022,26.6775742 L2.22721298,26.7615145 C2.54294815,26.8145294 2.85868332,26.8807981 3.17868519,26.9249773 L4.14722416,27.039843 L4.633627,27.0928579 L5.12429652,27.0928579 C6.47869378,27.2102673 7.84250483,27.1043935 9.1648534,26.7791861 C9.34135615,26.7409479 9.51415177,26.6862368 9.68112307,26.6157234 L10.1973927,26.4213352 C10.3733628,26.3460931 10.544395,26.2590218 10.7093957,26.1606784 C10.8841335,26.0727602 11.0511627,25.9692864 11.2085986,25.8514245 C11.894558,25.3831063 12.4434967,24.7291473 12.7958079,23.9605578 C13.1186004,23.1893103 13.2392801,22.3435658 13.1456766,21.5086163 C13.1066296,21.122212 13.0381493,20.7396076 12.9408754,20.3643769 C12.8340358,20.0059903 12.7057878,19.6548256 12.5568732,19.3129136 C11.9563999,17.9857114 11.0421115,16.8369156 9.89872434,15.9729716 C9.29819192,15.5166585 8.62114103,15.1796166 7.90191271,14.9789412 C7.10289396,14.7524236 6.257214,14.7739308 5.46989854,15.040792 C5.2242343,15.1086949 4.9877323,15.2081327 4.76589443,15.3367922 L4.37335881,15.5665236 C4.24908079,15.6488529 4.13072592,15.740396 4.01922342,15.8404342 C3.60756555,16.1787582 3.24288993,16.5741982 2.93548377,17.015599 C2.74095941,17.3545007 2.56710755,17.7056747 2.4149474,18.0670622 L2.23147967,18.6237192 L2.12907907,18.8799582 L2.06934539,19.1450329 C1.91050824,19.8453799 1.80353022,20.557259 1.74934353,21.2744669 C1.65887373,22.6597045 1.64320479,24.0490933 1.70240992,25.4361407 C1.8133439,28.1575749 2.03947855,30.8259942 2.23574636,33.1984134 C2.346524,34.5892657 2.57640658,35.9671793 2.9226837,37.315908 C3.02935098,37.9034904 3.20428534,38.4866549 3.23415218,37.8902367 C3.19148526,36.7018182 2.98668407,33.7418166 3.1232182,33.7285629 C3.18974787,34.1197505 3.22825306,34.5154962 3.23841887,34.9125635 C3.37068631,34.9125635 3.76748862,36.6797286 3.80162215,37.2540572 C3.91682282,37.8416396 4.33922528,41.3892236 4.44162588,41.976806 C4.46722603,42.0077313 4.51842633,42.0077313 4.5824267,41.976806 C4.61656023,42.0474926 4.633627,41.7426566 4.65496046,41.4908356 C4.67629391,41.2390145 4.69336068,40.8944173 4.71042745,40.5409843 C4.77869451,39.1184164 4.80002797,37.1789527 4.77442782,35.9861163 C4.74882767,34.7932798 4.94509548,35.9861163 5.04322938,35.9861163 C4.92802871,34.8021157 4.99202909,34.2189512 4.87256172,33.012861 C4.8772054,32.9614308 4.8772054,32.9096642 4.87256172,32.8582341 C4.87256172,32.7566221 4.87256172,32.610831 4.87256172,32.4164428 C4.85122827,32.054174 4.82562812,31.5328602 4.79576128,30.9982928 L4.60376016,27.6760224 C4.60376016,27.6760224 4.5312264,27.08844 4.45869264,25.3301108 C4.45869264,24.7469463 4.40749235,24.7513642 4.37335881,24.7513642 L4.44162588,24.7513642 C4.34775867,24.1681997 4.42029242,23.0151245 4.39895896,22.4452138 L4.46722603,22.4452138 C4.44234559,21.3817984 4.57618981,20.3207809 4.86402834,19.2996599 L4.92802871,19.2996599 C4.96216225,19.1892121 4.99629578,19.0787642 5.03042931,18.9771523 L5.15843006,18.738585 C5.23096381,18.6016297 5.28216411,18.5132714 5.29496418,18.5221072 L5.35469787,18.5574505 C5.49123199,18.4293311 5.61496605,18.1730921 5.80696717,18.0361368 C5.99896829,17.8991815 6.10136888,17.8064054 6.11843565,17.8284949 L6.08430212,17.7666442 C6.20580884,17.6876119 6.33814645,17.6280346 6.47683774,17.5899277 C6.6171838,17.5606571 6.76059121,17.5502628 6.90350689,17.5590023 C7.04743158,17.5670941 7.19029257,17.5892828 7.33017604,17.625271 C7.47951025,17.6827038 7.63311114,17.7313009 7.75684519,17.8019875 C8.36293383,18.1249633 8.89648553,18.5765671 9.32272098,19.1273613 C9.6259218,19.5131281 9.87975462,19.9378126 10.0779254,20.3908843 C10.2771205,20.8074534 10.4083182,21.255303 10.4661943,21.7162581 C10.5277387,22.1000387 10.4818397,22.4940419 10.3339269,22.8516617 C10.1748504,23.189834 9.93004382,23.4769112 9.62565608,23.6822293 C8.67673897,24.1981078 7.62113026,24.4679523 6.54937149,24.4686178 C5.94107587,24.5016917 5.33152315,24.5016917 4.72322752,24.4686178 C4.10455725,24.3979312 3.49442036,24.3758416 2.88001678,24.2609759 C2.65422031,24.2218051 2.42616247,24.1981911 2.19734614,24.1902893 L2.12054569,24.1902893 C2.12054569,24.1902893 2.12054569,24.1902893 2.12054569,24.2167968 C2.12054569,24.2433042 2.19307944,24.2609759 2.32108019,24.3007371 L2.0138784,24.2477221 C1.93707795,24.2477221 1.95414472,24.3449162 1.87734427,24.3316625 C1.22880716,24.3802595 0.640003729,24.0621698 0,24.0312444 C0.149334203,24.0975131 0.247468109,24.1947072 0.426669153,24.1947072 C0.426669153,24.2256326 0.426669153,24.2963192 0.426669153,24.305155 C0.652803804,24.3890954 0.938672136,24.3802595 1.02827266,24.5437223 C1.06240619,24.5879014 1.07947296,24.6983492 1.19894032,24.7248567 L1.07947296,24.6983492 C1.07947296,24.7336925 1.07947296,24.8043792 1.07947296,24.8043792 L1.57014248,25.0208569 C1.57014248,25.0208569 1.57014248,25.0871256 1.54880902,25.1224689 L1.62987616,25.1224689 C1.6640097,25.3831257 1.23307385,25.2505883 1.02827266,25.2417525 C1.02827266,25.2770958 1.0069392,25.3433645 1.00267251,25.3787078 L1.07947296,25.3787078 L1.07947296,25.4493944 L0.366935471,25.3433645 L0.529069749,25.3787078 C0.529069749,25.4140511 0.529069749,25.4449765 0.554669898,25.4538123 C0.384479484,25.3940888 0.205166155,25.3671369 0.0256001492,25.3742899 C-0.0213334576,25.4007974 -0.00426669153,25.5112452 0.11093398,25.573096 L0.430935844,25.6437826 L0.430935844,25.7144692 C0.341383804,25.6766225 0.246013287,25.6556754 0.149334203,25.6526184 C0.0981339051,25.674708 0.204801193,25.771902 0.149334203,25.7984095 C0.107923285,25.7832496 0.0627443762,25.7832496 0.0213334576,25.7984095 C0.166415832,25.8103979 0.309627315,25.8400554 0.44800261,25.8867678 C0.487405501,25.9290464 0.506226327,25.9875101 0.499202909,26.0458126 C0.694019339,26.0650531 0.860417049,26.1994434 0.925872061,26.3904098 C0.95147221,26.4699323 1.16480679,26.483186 1.28427415,26.5096935" id="Path" fill="#000091"></path>
                <path d="M15.6039812,22.7259549 L15.4759515,22.7259549 C15.5765462,22.7259549 15.6817135,22.7653676 15.7868807,22.7785051 L15.9423454,22.8047803 L16.0200777,22.8047803 L16.0612301,22.8047803 L16.975728,22.8047803 C18.2103001,22.8047803 19.4357273,22.8836057 20.6337195,23.0018437 C21.7803252,23.0988801 22.9095307,23.3343018 23.9944993,23.7025138 C24.3820402,23.8403286 24.7310302,24.0621537 25.0141644,24.3506336 C25.0951815,24.4513325 25.1472093,24.5706186 25.1650566,24.6965894 C25.1681631,24.7417921 25.1681631,24.7871415 25.1650566,24.8323442 C25.169311,24.8613966 25.169311,24.8908756 25.1650566,24.919928 C25.1650566,25.0031325 25.1650566,25.130129 25.1330491,25.2571254 C24.9549092,26.3925301 24.7075723,27.5169825 24.3923058,28.6247208 C24.2734211,29.0626396 24.1453914,29.5005584 24.0082167,29.9034437 C23.8808256,30.2931887 23.7281113,30.674923 23.5509678,31.0464117 L23.5006704,31.1383746 L23.5006704,31.1646497 C23.5006704,31.1646497 23.5006704,31.1646497 23.5006704,31.1646497 L23.7110049,31.3091629 C23.9337876,31.4434267 24.1290459,31.6155888 24.2871386,31.8171487 C24.3237185,31.8959741 24.3145735,31.9091117 24.3145735,31.9047325 C24.3266857,31.8861137 24.3404544,31.8685316 24.3557259,31.8521822 L24.4517482,31.7821152 C24.5563561,31.7198106 24.6684295,31.6698187 24.7855399,31.6332228 C24.8648767,31.6030396 24.9457613,31.5767307 25.0278819,31.5543975 L25.2976587,31.4799513 L25.3433836,31.4799513 L25.3433836,31.4799513 L25.3433836,31.4799513 L25.3433836,31.427401 L25.2976587,31.1296162 C25.2427889,30.6916975 25.1924915,30.2537787 25.1467666,29.7895848 C24.954722,27.9590843 24.7657258,26.1446408 24.5797779,24.3462544 C24.3831609,22.542029 24.1728263,20.7509412 23.9213394,18.972991 C23.7933097,18.0971534 23.6607075,17.2213159 23.5006704,16.3192032 C23.4229381,15.8812844 23.3406333,15.4433656 23.2491835,15.0054468 L23.1074363,14.3398103 L23.029704,14.0113712 L22.9885516,13.8405829 L22.9153918,13.5734524 C22.7974617,13.0325868 22.6463068,12.4988579 22.4627153,11.9750489 C22.2594891,11.4354589 21.9489225,10.9387384 21.5482174,10.5124002 C21.2173486,10.17136 20.7726885,9.95146021 20.2907828,9.89055552 C20.0607043,9.87013485 19.8286718,9.88791272 19.6049094,9.94310577 C19.4356057,9.98373421 19.2726385,10.0455764 19.1202255,10.1270317 C18.8175174,10.3011101 18.554671,10.5319909 18.3474748,10.8058058 C18.0682256,11.1504744 17.8376162,11.528882 17.6616014,11.931257 C17.4548476,12.3854792 17.2747164,12.8503957 17.1220477,13.3238387 L16.9482931,13.866858 L16.8294083,14.2609849 C16.518479,15.31199 16.2624196,16.3761326 16.0200777,17.4534128 C15.5628288,19.6123524 15.1467322,21.8326006 14.7809331,24.0221945 C14.4151339,26.2117884 14.0859147,28.4451741 13.7795579,30.5909761 C13.4732011,32.7367782 13.1942792,34.8344091 12.8970674,36.721839 C12.8604875,36.953936 12.8239076,37.1597578 12.7873277,37.4006131 L12.7370303,37.6721228 L12.7370303,37.7071563 L12.7370303,37.7071563 L12.874205,37.7421898 L13.1805618,37.8385319 L13.4549111,37.9261157 C13.5372159,37.9523908 13.6149483,37.9786659 13.6972531,38.0136994 C13.7795579,38.0487329 13.8252828,38.0574913 13.8892976,38.0881456 L14.0401898,38.1625918 L14.1270671,38.2239004 C14.1270671,38.2501756 14.1270671,38.2239004 14.1270671,38.2239004 L14.1270671,38.2239004 L14.2459518,38.1450751 L14.2688142,38.1450751 L14.369409,38.0750081 L14.5705985,37.9480116 C14.708432,37.8695863 14.8503647,37.7979659 14.9958401,37.7334314 C15.1447676,37.6720259 15.2974675,37.6193779 15.453089,37.5757806 C15.4642032,37.5884507 15.4720365,37.603455 15.4759515,37.6195725 C15.4759515,37.6502268 15.4759515,37.6983979 15.4759515,37.6589852 L15.443944,37.5407471 C15.443944,37.466301 15.3982191,37.3874756 15.3753567,37.2823751 C15.3342043,37.0853116 15.2884794,36.9013857 15.2518995,36.6999431 C15.1010073,35.9248269 14.9638326,35.2110192 14.8449479,34.5935538 C14.6208959,33.3892771 14.4654313,32.6667111 14.4654313,32.6667111 C14.3145391,31.6901523 14.1042046,30.7223518 14.0996321,31.7032898 C14.0950596,32.6842279 14.2825317,34.4008695 14.4425688,35.859139 C14.5157287,36.5860842 14.602606,37.2560999 14.6757658,37.6896395 C14.6757658,37.7421898 14.6757658,37.7903608 14.6986283,37.8385319 C14.7214907,37.886703 14.6986283,37.864807 14.6986283,37.8823238 L14.6986283,37.8823238 L14.584316,37.9480116 C14.4764952,38.0090458 14.3726596,38.0763181 14.2733867,38.1494542 L14.2733867,38.1494542 L14.2733867,38.1494542 L14.163647,38.2195212 L14.163647,38.2195212 L14.163647,38.2195212 C14.163647,38.2195212 14.163647,38.2195212 14.163647,38.2195212 C14.1210618,38.1839245 14.0733169,38.1544236 14.0218998,38.1319375 C13.9435902,38.0888606 13.8608469,38.0536405 13.7749854,38.026837 C13.4732011,37.9042197 13.5966583,37.9655284 13.5737959,37.9436324 C13.5509334,37.9217365 13.6469557,37.7903608 13.6652456,37.7991192 C13.675538,37.843834 13.675538,37.8901592 13.6652456,37.934874 C13.6652456,37.934874 13.6652456,37.9742867 13.6652456,37.9742867 L13.9075876,38.0662497 L14.0950596,38.1538334 L14.1590745,38.2020045 C14.1738524,38.2073354 14.1855157,38.2185057 14.1910819,38.2326588 C14.1910819,38.2326588 14.1910819,38.2326588 14.1910819,38.2326588 C14.1910819,38.2326588 14.1910819,38.2326588 14.1910819,38.2326588 L14.1910819,38.2326588 L14.2916767,38.166971 L14.2916767,38.166971 L14.3236841,38.1450751 C14.4059889,38.0837664 14.4928662,38.026837 14.584316,37.9699075 L14.6574758,37.9304949 L14.6574758,37.9304949 L14.6574758,37.9304949 C14.6574758,37.9304949 14.6574758,37.9304949 14.6574758,37.886703 C14.5564946,37.4678161 14.4801661,37.0438265 14.4288514,36.6167385 C14.2642418,36.651772 13.6423832,33.735233 13.5829408,32.7499157 C13.5052085,32.2594467 13.294874,30.5603218 13.1622718,28.8086467 C13.089112,27.9328092 13.0433871,27.0788675 13.0205246,26.3650599 C12.9976622,25.6512523 13.0205246,25.0907163 13.0205246,24.8367234 C12.9741059,24.8099698 12.9160513,24.8099698 12.8696325,24.8367234 C12.84677,24.6965894 12.7690377,25.2177127 12.7050229,25.6381148 C12.641008,26.0585168 12.5998556,26.6321904 12.5632757,27.2277599 C12.4375425,29.7656286 12.4650232,32.3083351 12.6455805,34.8431675 C12.7873277,36.8444563 12.4626809,34.8431675 12.3529412,34.8694426 C12.4763984,35.881035 12.5632757,36.6211177 12.650153,37.3918548 C12.6821604,37.5932974 12.7050229,37.7772233 12.7461753,38.0005619 C12.7736102,38.1144207 12.7964727,38.2326588 12.8239076,38.3508969 C12.8487692,38.4574501 12.8839781,38.5615439 12.9290748,38.6618192 C12.9565098,38.727507 12.9839447,38.7931948 13.0159521,38.8545035 L13.0662495,38.9508456 L13.0662495,38.9727415 L13.0662495,38.9727415 C13.1172784,39.0437286 13.175477,39.1097345 13.2400041,39.169805 C13.3079175,39.2313421 13.3813614,39.2870273 13.4594836,39.3362141 C13.4986182,39.3614209 13.5399193,39.3833959 13.5829408,39.4019019 L13.6423832,39.4281771 C13.6773456,39.4451241 13.7141463,39.4583409 13.7521229,39.4675898 C13.9200782,39.5200945 14.0974007,39.5394607 14.2733867,39.5245192 C14.3615457,39.5156503 14.4487445,39.4995339 14.5340186,39.4763481 L14.6483309,39.4369354 L14.7260632,39.4019019 C14.8445077,39.3457279 14.9538535,39.2734541 15.0507099,39.1873217 C15.0943687,39.1472897 15.1355891,39.1048876 15.1741672,39.0603253 L15.2107471,39.0121542 C15.255375,38.9554796 15.2951334,38.8954342 15.3296318,38.8326075 C15.3570667,38.7800573 15.3936466,38.6968527 15.4027916,38.6749568 C15.4260925,38.6191954 15.4459411,38.5621671 15.462234,38.5041685 C15.4862515,38.4322884 15.5060959,38.3591901 15.5216764,38.2852091 C15.5536838,38.1582126 15.5765462,38.0399745 15.5994087,37.9217365 C15.6497061,37.6852603 15.686286,37.4487842 15.7274384,37.1991705 C15.7274384,37.1991705 15.7274384,37.1072076 15.7823082,36.9364192 C15.8371781,36.7656309 15.8554681,36.5247756 15.910338,36.2269908 L16.2578471,33.8709878 C16.5413415,32.0361081 16.8751332,29.8377558 17.0991852,28.3707279 C17.0991852,28.3707279 17.2043525,27.3897899 17.6844638,24.4732508 C17.844501,23.5010711 17.8124936,23.4923128 17.7759136,23.4879336 L17.844501,23.4879336 C17.9359508,22.5026163 18.3611923,20.5801529 18.5166569,19.6123524 L18.5898168,19.6123524 C18.7452814,18.6445519 18.9464709,17.6855098 19.1750954,16.7439844 C19.2894076,16.2710321 19.4082924,15.8068382 19.5363221,15.3426443 L19.7192216,14.6901453 L19.796954,14.4273941 L19.796954,14.3573271 L19.8563963,14.3967397 C19.8975487,14.2653641 19.9707086,14.1383677 19.984426,14.2040555 L20.011861,14.3266727 C20.0804483,14.2697433 20.1764706,14.3967397 20.1216007,14.44929 L20.1764706,14.3836022 L20.1764706,14.44929 C20.208478,14.5631489 20.235913,14.6682494 20.2633479,14.7777291 C20.3685151,15.2156479 20.4645374,15.6535666 20.5468422,16.0520727 C20.7175485,16.8870379 20.8608198,17.6957279 20.9766562,18.4781428 C21.2189982,20.0415128 21.3973253,21.5041615 21.5665074,22.9668102 C21.7631244,24.8936528 21.9734589,26.9080792 22.1883659,29.0407437 C22.2432358,29.5750046 22.3026782,30.1136447 22.357548,30.656664 C22.394128,30.936932 22.4261354,31.2172 22.4627153,31.497468 C22.4627153,31.6507396 22.4992952,31.7864944 22.5404476,31.9966954 C22.5736868,32.1659831 22.6242273,32.33173 22.6913398,32.4915436 C22.7771816,32.6988922 22.9028034,32.8890136 23.0617114,33.0520797 C23.1347221,33.1257001 23.2142782,33.1931014 23.2994809,33.2535223 C23.4268727,33.3410567 23.5651009,33.4131328 23.7110049,33.4681025 C23.8750187,33.5275901 24.047905,33.5615926 24.2231237,33.5688238 C24.3765151,33.5800964 24.5308035,33.5682751 24.6803727,33.5337903 C24.8017033,33.5081986 24.9197607,33.4700203 25.0324544,33.4199314 C25.1167305,33.3823369 25.1977646,33.3384077 25.2747963,33.2885558 C25.3703697,33.2270277 25.4605896,33.158196 25.5445732,33.082734 L25.7000378,32.9250832 L25.8006326,32.7980868 C25.88485,32.684759 25.9612218,32.566267 26.0292571,32.4433726 C26.1220999,32.2752815 26.2060354,32.1028146 26.280744,31.9266284 C26.4133462,31.6113269 26.5185134,31.3223005 26.6191082,31.0507909 C26.8111527,30.4771173 26.9757624,29.9165812 27.131227,29.351666 C27.4785254,28.1506599 27.7518218,26.9311431 27.9497026,25.6994234 C27.9497026,25.5286351 27.990855,25.3578467 28,25.1476457 L28,24.9768574 C28,24.9155488 28,24.8323442 28,24.7622772 C28,24.617764 27.9725651,24.5258011 27.9588476,24.4119422 C27.8848339,23.8971134 27.6944616,23.4039409 27.4010039,22.9668102 C27.2505558,22.7582381 27.0823224,22.561963 26.89803,22.3799991 C26.7240955,22.2240206 26.5408902,22.0778037 26.3493313,21.9420803 C26.1664317,21.8238422 25.9789597,21.7143625 25.7960601,21.6048828 L25.2565063,21.3640275 C24.9130174,21.2236131 24.5619625,21.1008219 24.2048338,20.9961757 C23.871042,20.9129712 23.5326778,20.8253874 23.1943136,20.7553204 L22.2112284,20.5845321 C21.8865816,20.536361 21.5665074,20.5057067 21.2418606,20.466294 C20.6017121,20.3874686 19.9752811,20.3655727 19.34885,20.3174016 C18.722419,20.2692306 18.1097054,20.2692306 17.5198542,20.2648514 C16.9894455,20.2648514 16.4636092,20.2648514 16.1984048,20.2955057 C16.151215,20.2922989 16.1038474,20.2922989 16.0566576,20.2955057 C16.0549026,20.3027076 16.0549026,20.3101997 16.0566576,20.3174016 C16.190015,20.3562944 16.3287835,20.3754913 16.4681817,20.3743311 L15.9286279,20.3743311 C15.8417506,20.3743311 15.8874755,20.4794316 15.7960257,20.4794316 C15.0918623,20.6677366 14.378554,20.5057067 13.6743906,20.6239448 C13.8308004,20.6785268 13.9978398,20.6994585 14.163647,20.6852534 C14.163647,20.7202869 14.163647,20.7903539 14.2093719,20.7859747 C14.4745763,20.816629 14.7809331,20.7421828 14.9181077,20.8779377 C14.9638326,20.9129712 15.0095575,21.0136925 15.1421597,21.0136925 L15.0095575,21.0136925 L15.0095575,21.118793 L15.5811187,21.2151351 L15.5811187,21.3158564 L15.667996,21.3158564 C15.7548733,21.5567118 15.2747619,21.5348158 15.0552824,21.5742285 C15.0552824,21.6048828 15.0552824,21.6749498 15.0552824,21.7099833 L15.1467322,21.7099833 L15.1467322,21.7800503 L14.4059889,21.7800503 L14.5797435,21.7800503 C14.5797435,21.8150838 14.5797435,21.8501173 14.6254684,21.8501173 C14.4365089,21.8310491 14.2454803,21.8474107 14.0630522,21.8982884 C14.0218998,21.9333219 14.0630522,22.0340432 14.1956544,22.0690767 L14.5431636,22.0690767 L14.5431636,22.1391437 C14.4416721,22.1238112 14.3382983,22.1238112 14.2368068,22.1391437 C14.1956544,22.1785564 14.3282566,22.2442442 14.2871042,22.2792777 C14.2390514,22.27364 14.1907789,22.2879877 14.154502,22.3186904 C14.2985711,22.2990463 14.4448194,22.2990463 14.5888885,22.3186904 C14.6549362,22.3490957 14.6948382,22.4151035 14.6894833,22.4850996 C14.8962841,22.4542112 15.1021138,22.5458585 15.2107471,22.7171965 C15.256472,22.7872635 15.471379,22.7478508 15.5994087,22.7434716" id="Path" fill="#000091"></path>
                <path d="M29.1288843,32.9199137 L29.0525455,32.7981492 C29.1252717,32.9937968 29.2123089,33.1841741 29.3129953,33.3678331 L29.3129953,33.3678331 L29.3129953,33.3678331 L29.3444288,33.4113205 L29.6138596,33.7635678 C29.8068891,33.9941374 30.0122362,34.2147743 30.2290598,34.424575 C30.4525447,34.6335738 30.6911481,34.8268587 30.9430512,35.0029564 L31.3292353,35.2638803 C31.4594602,35.3465063 31.6031566,35.4117372 31.7423624,35.4856657 C32.8509247,36.0363102 34.0907885,36.2914626 35.3347723,36.2249501 C35.6352926,36.2159292 35.9350937,36.1912507 36.2328748,36.1510217 L37.1309773,35.9901186 C37.4273511,35.9118414 37.7237249,35.8031231 38.0290797,35.707451 C38.3255754,35.5800866 38.6135331,35.4348439 38.8912581,35.2725778 C39.1531887,35.104229 39.4036768,34.9197525 39.6411737,34.7202888 C39.8840245,34.4863778 40.1063256,34.2332756 40.3057695,33.9636094 C40.4970726,33.6915827 40.6567086,33.3998926 40.7817638,33.093863 L40.9883274,32.6242 C41.0332325,32.4676456 41.0601756,32.3110912 41.0916092,32.1545369 C41.3004095,30.948826 41.1217101,29.7101003 40.5796908,28.6059715 L40.3821082,28.2058881 C40.3147505,28.0754262 40.2249403,27.9536617 40.1486016,27.8275484 C39.9873125,27.5724025 39.8040462,27.3309133 39.6007591,27.1056589 C39.3911247,26.8729042 39.1661271,26.6535579 38.9271822,26.4490003 L38.3344346,25.9880347 C37.952741,25.6662286 37.1803729,25.0617548 36.7986794,24.7747385 C35.227,23.6875555 33.4487571,22.6003724 32.7796708,21.3261939 C32.6884703,21.1653231 32.6132893,20.9964103 32.5551452,20.821741 C32.5282021,20.7347663 32.4877875,20.6521404 32.4653349,20.5651658 L32.3889962,20.2738007 C32.343568,20.0838555 32.3165081,19.8902254 32.308167,19.6954194 C32.292583,19.5247021 32.292583,19.3529862 32.308167,19.182269 L32.308167,19.0605045 L32.3396006,18.9517862 C32.3396006,18.8822065 32.3710342,18.8126267 32.3845057,18.7386983 C32.4159393,18.5951901 32.4967685,18.4908206 32.5282021,18.3560099 C32.5596357,18.2211992 32.667408,18.1342245 32.7572182,18.0472499 C32.8470285,17.9602753 32.9233672,17.851557 33.044611,17.7993722 C33.429656,17.5262644 33.8731785,17.3404862 34.3423691,17.2557807 L34.6117998,17.2079446 L34.8228539,17.2079446 L35.0114554,17.2079446 C35.3392628,17.2644781 35.7478995,17.3166629 35.4605067,17.0948776 C34.9935429,16.8399018 34.4594947,16.7234592 33.9247515,16.7600252 C33.6813679,16.7769362 33.439674,16.8118276 33.201779,16.8643948 C33.0221585,16.9209283 32.9009146,16.9383232 32.8829526,16.9078821 C33.1011056,16.7625116 33.3521385,16.6700414 33.6149061,16.6382607 C33.6149061,16.6078196 33.6732828,16.5295424 33.7900361,16.4817063 C33.9408327,16.4181319 34.0952589,16.362958 34.2525589,16.3164545 C34.4506254,16.2910008 34.6500271,16.2764816 34.849797,16.2729672 C35.0010176,16.2919983 35.1509579,16.3195875 35.2988482,16.3555931 C35.5302371,16.4063541 35.7558644,16.4791886 35.9724251,16.5730297 C36.3271335,16.7470596 36.6550954,16.9680673 36.9468663,17.2296883 C37.0288855,17.2931972 37.1068634,17.361452 37.1803729,17.4340787 L37.3959175,17.6645615 C37.5228198,17.8004747 37.638436,17.9458849 37.741687,18.0994347 C37.9213075,18.3951485 38.0650038,18.6256313 38.1323615,18.7300008 C38.1682856,18.7300008 38.2176813,18.7300008 38.2760579,18.6865135 C38.3344346,18.7300008 38.2760579,18.4864718 38.1997192,18.2820814 C38.1345254,18.0186852 38.0349317,17.76441 37.9033454,17.525402 L37.6698388,17.0905288 C37.5800285,16.9470207 37.4587847,16.81221 37.3465219,16.6556556 C37.0984062,16.3615022 36.8132934,16.0985395 36.497815,15.8728838 C35.9083988,15.4634959 35.2233663,15.2020192 34.5040275,15.1118557 C34.2076537,15.0509735 34.0549763,15.0683684 33.9965996,15.042276 C33.938223,15.0161836 33.9965996,14.9987887 34.0549763,14.9726963 C34.2076537,14.9031166 34.5040275,14.8857216 34.5264801,14.8335369 C33.9933331,14.8025713 33.4583295,14.8435518 32.9368387,14.9553014 C32.6901923,14.9978067 32.4502228,15.0708862 32.2228473,15.172738 C32.1016034,15.2249228 31.9713786,15.2684101 31.8411537,15.3379898 L31.4549697,15.5902163 C31.2600539,15.6843655 31.0837393,15.8109544 30.9340702,15.9642072 C30.5342955,16.3025648 30.2024281,16.7094613 29.9551385,17.1644573 C29.6591618,17.7136436 29.4761524,18.3132759 29.416277,18.9300425 C29.3891249,19.2191626 29.3801273,19.5096126 29.389334,19.7997889 C29.389334,20.0476667 29.4342391,20.2781495 29.4522011,20.4825399 C29.4550428,20.520956 29.4625796,20.5589102 29.4746537,20.5956069 C29.4746537,20.6738841 29.5240493,20.7956486 29.564464,20.9652491 C29.6119002,21.1889447 29.6779773,21.4085496 29.7620465,21.6219077 C29.8114421,21.7610671 29.8698188,21.9132727 29.9281955,22.0828733 L30.2110977,22.6221161 C30.4895095,23.126569 30.5433956,23.0874304 30.5658482,23.0569893 L30.5074715,23.0961279 C30.687092,23.3266107 30.9565228,23.6484169 31.221463,23.9658743 C31.4610444,24.2429958 31.7238872,24.5004489 32.0073027,24.7355999 L31.957907,24.7877847 C32.7475185,25.4072311 33.5688245,25.9877965 34.4187078,26.5272775 L34.3782932,26.583811 C34.6532708,26.7404297 34.9119349,26.9224772 35.1506613,27.1274026 L35.1102467,27.1839361 C35.5031705,27.4214918 35.876952,27.6875252 36.2283843,27.9797541 L36.2732894,27.9232205 C36.4618909,28.0493338 36.6370209,28.175447 36.8031699,28.3015602 L37.0501481,28.4885557 L37.1713919,28.5755304 L37.2477306,28.6494588 C37.350867,28.7365811 37.4455619,28.8326531 37.5306329,28.9364751 C37.6242678,29.0351527 37.7070401,29.1430028 37.7776111,29.2582813 C38.0707948,29.6975211 38.2622873,30.1930341 38.3389251,30.7107578 C38.4495707,31.3098988 38.333168,31.9275834 38.0111177,32.4502507 C37.6031879,32.98271 36.9979546,33.3412433 36.3226851,33.4504591 L35.6895228,33.5765723 C35.4694877,33.5765723 35.2404716,33.6026647 35.033908,33.6244083 C34.8273444,33.646152 34.6117998,33.6244083 34.4007458,33.6244083 C34.1896917,33.6244083 34.0010902,33.5548286 33.7990171,33.5287362 C33.0251352,33.3457181 32.3277413,32.9374578 31.8007391,32.3589273 C31.7007918,32.2445374 31.5927594,32.1370098 31.4774222,32.0371211 L31.4280266,32.0110287 L31.4280266,32.0110287 C31.4280266,32.0110287 31.4280266,32.071911 31.4729317,32.1545369 L31.3606689,32.0153775 L31.3606689,32.0153775 L31.3337258,31.9762389 C31.2978017,31.9153566 31.2259535,32.0023313 31.1900294,31.9457977 C30.9696223,31.7621858 30.8011666,31.5272087 30.7005636,31.2630468 C30.6376964,31.1369336 30.5972818,31.0064716 30.5389051,30.8760096 C30.4978688,30.7611035 30.4452245,30.6503993 30.3817372,30.545506 C30.3517045,30.6599942 30.3677581,30.7812586 30.4266423,30.8847071 C30.3907182,30.8847071 30.3233605,30.919497 30.3368321,30.9542868 C30.3862277,31.1673747 30.5613577,31.3630676 30.485019,31.5239707 C30.485019,31.5718068 30.3907182,31.6544327 30.4446044,31.7501048 L30.3907182,31.6544327 L30.291927,31.69792 C30.3413226,31.8457769 30.3952087,32.0371211 30.4535854,32.184978 L30.3637752,32.2371628 L30.4086803,32.3023938 C30.3233605,32.4024146 30.2290598,32.3545786 30.134759,32.2632552 C30.0404583,32.1719318 29.9686101,32.0197262 29.9012524,31.941449 L29.775518,32.00668 L29.8159326,32.0762597 L29.7530655,32.1110496 C29.6356281,31.9025276 29.5306761,31.6876351 29.4387296,31.4674372 C29.4387296,31.5065758 29.4881252,31.584853 29.5060873,31.6239916 C29.5240493,31.6631302 29.4387296,31.650084 29.4566917,31.6892225 C29.3989321,31.495482 29.3094845,31.3119578 29.1917514,31.145631 C29.1468463,31.1195386 29.0570361,31.1934671 29.0705076,31.3282778 C29.0839791,31.4630885 29.1558273,31.5326682 29.205223,31.650084 L29.1423558,31.6805251 C29.1180262,31.579197 29.077093,31.4822973 29.021112,31.3935088 C28.9717163,31.3674164 28.9537543,31.5152733 28.9043586,31.4848321 C28.8907561,31.4396672 28.8623939,31.3999932 28.8235294,31.3717651 C28.8938925,31.5119237 28.9524593,31.6573536 28.9986594,31.8066383 C28.9945079,31.8658 28.9587514,31.9185658 28.9043586,31.9457977 C29.0211569,32.1284287 29.0346738,32.3558696 28.9402827,32.5502715 C28.9043586,32.6242 29.0435645,32.8198929 29.1288843,32.9373087" id="Path" fill="#000091"></path>
                <path d="M85.4362318,6.43469521 C78.9344287,-1.16640836 61.2123459,-7.12426757 46.7456118,19.6157997 C46.1541345,19.242335 45.5671044,18.8644767 45.0200991,18.4690436 C44.1995568,17.9306272 43.505081,17.2250303 42.9832825,16.3996102 L42.8320778,16.1140196 C42.7804496,16.0177005 42.7358638,15.9178549 42.6986619,15.8152479 C42.6174936,15.6109576 42.5578818,15.3989369 42.520774,15.1825549 L42.4851964,15.0243816 L42.4851964,14.8486335 L42.4451716,14.4971374 C42.4247749,14.2999343 42.4247749,14.1011908 42.4451716,13.9039877 C42.5208373,13.2167518 42.9151585,12.6031667 43.5124991,12.2431686 C44.0438277,11.9177439 44.6399784,11.7094281 45.2602478,11.6324441 C45.4590361,11.6029468 45.6596199,11.5867996 45.8606194,11.5841133 L46.0874265,11.5841133 C46.5010159,11.6368378 46.9768661,11.7378929 46.5944071,11.4742708 C46.3322243,11.3491052 46.0560969,11.2547292 45.7716755,11.1930739 C45.4280183,11.1235408 45.0770841,11.0955087 44.726584,11.1095936 C44.0417156,11.1403495 43.4991575,11.3468535 43.4724743,11.2853416 C43.7426169,11.1220475 44.0467213,11.021398 44.3619138,10.9909636 C44.3619138,10.9206644 44.6865593,10.7537038 45.1357262,10.6746171 C45.543077,10.5988004 45.9624236,10.6138114 46.3631528,10.7185542 C46.6296448,10.7672685 46.8893812,10.8469067 47.1369652,10.955814 C47.5446375,11.1317824 47.9249611,11.3640364 48.2665534,11.6456252 C48.8126544,12.1339521 49.2646758,12.7159998 49.6007127,13.3635624 C49.6362903,13.385531 49.6852095,13.3635624 49.7385758,13.3196254 C49.8008366,13.3723498 49.7118927,13.091153 49.6451847,12.8538931 C49.5430082,12.5579159 49.4150424,12.2712513 49.2627257,11.9971213 C48.4691493,10.5746939 47.0236234,9.62369546 45.3892165,9.44877442 C44.0550572,9.36090039 45.3892165,9.25545156 45.3892165,9.16757753 C44.8174438,9.14256355 44.2446338,9.18088102 43.6814926,9.28181377 C43.1063336,9.38750109 42.5559707,9.59754955 42.0582654,9.90132568 C42.0015812,9.92713043 41.9466208,9.95648137 41.8937191,9.9891997 C41.7399993,10.0757963 41.5915086,10.1711543 41.4489993,10.2747903 C40.9847555,10.6226859 40.5871558,11.0497255 40.2749391,11.5357826 C39.8949159,12.1389691 39.6465057,12.8138796 39.5455987,13.517342 C39.5202246,13.8436727 39.5246899,14.1715992 39.5589403,14.4971374 C39.5589403,14.782728 39.6034123,15.0507438 39.6256483,15.2880037 C39.6256483,15.2880037 39.6256483,15.3319407 39.6256483,15.4198147 C39.6256483,15.5076888 39.6790146,15.6482872 39.7234866,15.8591849 C39.7776375,16.1240562 39.8534896,16.3841408 39.9502937,16.63687 C40.0081073,16.799437 40.0748152,16.9751851 40.1459704,17.1685079 C40.2171256,17.3618308 40.3460943,17.5595474 40.4617214,17.7792324 C40.7952613,18.3504136 40.8486276,18.3064766 40.8708636,18.2932955 L40.8130501,18.3328388 C41.0176212,18.5964609 41.3333722,18.9523507 41.6491232,19.3082406 C41.9233275,19.6033952 42.220735,19.876657 42.5385628,20.125469 L42.4940908,20.1781934 C43.4122409,20.8574474 44.3652044,21.4895137 45.3491917,22.0718788 L45.3136141,22.1289969 L45.3803221,22.1729339 C44.793292,23.3460522 44.2196035,24.5806823 43.645915,25.8724306 C43.6147846,25.9163676 43.5703126,25.9822731 43.5169463,26.0701471 C43.1223958,26.7469685 42.7861876,27.4553888 42.5118796,28.1879112 C42.461438,28.1703873 42.4288023,28.1220227 42.43183,28.0692813 C42.852547,26.7738715 43.4022416,25.5228693 44.072846,24.334635 C44.3041002,24.0226822 44.5620377,23.2889341 44.0105852,24.0973752 C43.4945949,24.876283 43.0481912,25.698076 42.6764259,26.5534543 C42.605997,26.5354109 42.5313725,26.5594149 42.4851964,26.6149661 L42.3206501,26.9181315 L42.2539421,26.8873756 C42.3197112,26.8057641 42.3708516,26.7136299 42.4051468,26.6149661 C42.4051468,26.5622417 42.2717309,26.6413283 42.2583893,26.5886039 L42.2583893,26.5886039 L42.2850725,26.5226984 C42.4672078,26.0706023 42.6781303,25.6303517 42.9165746,25.2045879 C43.0855681,24.9585407 43.2812448,24.3697847 42.880997,25.0112651 C42.5126853,25.6122624 42.1929761,26.2410508 41.9248495,26.8917693 L41.9248495,26.8917693 C41.8573742,27.0925768 41.6888264,27.2441102 41.4801297,27.2915961 C41.4134217,27.2915961 41.3645026,27.440982 41.3244778,27.5683993 C41.2121071,27.7390059 41.1167855,27.9199984 41.0398571,28.1088246 L41.0398571,28.1351868 L41.0398571,28.1966987 C40.9914131,28.3497046 40.9513305,28.5051731 40.9197828,28.662431 C40.8402941,29.0407734 40.8133632,29.4280532 40.8397332,29.8135808 C40.86711,30.2581666 40.9882961,30.6921817 41.1955091,31.0877542 C41.4154466,31.4988466 41.7290691,31.8538203 42.1116318,32.1246678 C42.7631083,32.5570394 43.5137918,32.8213761 44.2952059,32.8935655 C44.9547948,32.9570468 45.6190671,32.9570468 46.278656,32.8935655 C47.6185201,32.8412713 48.9309635,32.5024919 50.125482,31.900589 C50.7766486,31.5534499 51.3523649,31.0831896 51.8198644,30.516573 C52.2898774,29.9266593 52.6210527,29.2407579 52.7893535,28.5086515 C53.0766325,27.125558 52.8822986,25.6871349 52.2379009,24.4269028 C51.9381336,23.813497 51.5452057,23.2489751 51.0727351,22.7529025 C50.8226129,22.5049459 50.5502152,22.2799431 50.258898,22.0806662 L49.5695823,21.5753905 C49.1248626,21.2282881 48.235423,20.5736266 47.7640201,20.2572801 L47.3193003,19.9760832 C58.7085736,2.39248984 70.662641,-2.1681723 83.9286317,7.46721505 C86.4501928,9.31696338 87.3618684,8.68427036 85.4362318,6.43469521 Z M47.5416602,23.6272491 L47.581685,23.570131 C47.8040448,23.7107294 48.0264047,23.8513279 48.2087398,24.0095011 L48.5022549,24.2160051 L48.6445652,24.3126665 C48.6934844,24.3478162 48.7112732,24.3697847 48.7468507,24.3961469 C49.0052005,24.5991731 49.2315227,24.8390616 49.4183776,25.1079265 C49.7756881,25.6080554 50.0129483,26.18205 50.1121404,26.7863205 C50.2475319,27.4973155 50.0872196,28.2322167 49.6674207,28.824998 C49.0861173,29.4657279 48.3023739,29.8931501 47.4438218,30.0376596 C47.199226,30.0991714 46.9368413,30.134321 46.6700094,30.178258 C46.4031776,30.222195 46.1052153,30.2441635 45.8339363,30.2617383 C45.3300331,30.3052369 44.8227572,30.2919705 44.321889,30.222195 C44.143141,30.1865981 43.9676344,30.1366367 43.7971197,30.0728092 C43.7147128,30.0382016 43.6393661,29.9890709 43.5747598,29.927817 C43.5274397,29.8774073 43.4951225,29.8150707 43.4813687,29.7476753 C43.456488,29.60225 43.456488,29.4537304 43.4813687,29.3083051 C43.4813687,29.1457382 43.5258407,28.956809 43.5302878,28.868935 C43.5332884,28.850011 43.5332884,28.8307408 43.5302878,28.8118169 L43.5080519,28.8118169 C43.5080519,28.8118169 43.4546855,28.8601476 43.4146607,28.9480216 L43.4813687,28.7195491 C43.4813687,28.6580373 43.3879775,28.6580373 43.4102135,28.5921318 C43.4102135,28.0121632 43.8549333,27.5464308 44.0772932,26.9928244 C43.9661132,27.102667 43.8460389,27.1641788 43.8060141,27.3135647 C43.7704365,27.3135647 43.712623,27.2608402 43.6948342,27.2915961 C43.5480766,27.4761316 43.4947103,27.7309663 43.3212696,27.7836907 C43.2723504,27.8056592 43.1567232,27.7836907 43.1122513,27.8979269 L43.1611704,27.7968718 L43.0633321,27.7529348 C43.0010713,27.8320214 42.9388106,27.9242892 42.8765498,28.0165569 C43.0944625,27.4321946 43.3212696,26.9269189 43.4635799,26.601785 C44.2611107,25.1372179 45.0601239,23.7473436 45.8606194,22.4321623 C46.023045,22.5112257 46.1728748,22.6133647 46.3053392,22.7353277 L46.2697616,22.7924458 C46.7099404,23.0458157 47.1346411,23.3245656 47.5416602,23.6272491 Z" id="Shape" fill="#000091"></path>
                <path d="M62.2876071,20.5131207 C63.0559725,21.5101552 64.2772654,22.1388534 65.6121074,22.2245098 C66.5715591,22.2245098 67.1424329,21.8446862 67.1424329,20.9977232 C67.1424329,18.7362447 59.9897202,19.4784288 59.9897202,14.4053825 C59.9897202,11.9343461 62.268418,9.88235294 65.5641348,9.88235294 C67.9029478,9.87290447 70.127826,10.8006581 71.6470588,12.4189487 L68.6535694,14.9118139 C67.6941176,13.898951 66.6770988,13.1654985 65.5881211,13.1654985 C64.7533981,13.1654985 64.1729298,13.6326379 64.1729298,14.2438483 C64.1729298,16.4267426 71.3208452,15.7020217 71.3208452,20.8798469 C71.2776699,23.8398516 68.720731,25.5294118 65.6552827,25.5294118 C62.5898344,25.5294118 60.7812678,24.5864014 59.2941176,23.0278149 L62.2876071,20.5131207 Z" id="Path" fill="#E1000F"></path>
                <path d="M74.1176471,10.7058824 L78.9141361,10.7058824 C82.0615842,10.7058824 84,12.4210015 84,15.3218279 C84,18.2226544 82.0615842,19.9158969 78.9141361,19.9158969 L77.53465,19.9158969 L77.53465,25.5294118 L74.1176471,25.5294118 L74.1176471,10.7058824 Z M77.53465,13.8167234 L77.53465,16.8050559 L79.1202662,16.8050559 C79.4927633,16.8349764 79.8583616,16.6827592 80.1201537,16.388752 C80.3819459,16.0947447 80.513495,15.6886374 80.479932,15.2780749 C80.4993943,14.8773047 80.3611142,14.48678 80.1006007,14.2067834 C79.8400872,13.9267869 79.4827196,13.7845958 79.1202662,13.8167234 L77.53465,13.8167234 Z" id="Shape" fill="#E1000F"></path>
                <path d="M100.470588,17.7058822 C100.470588,22.0266983 96.9678748,25.5294118 92.6470588,25.5294118 C88.3262428,25.5294118 84.8235294,22.0266983 84.8235294,17.7058822 C84.8235294,13.3850662 88.326243,9.88235294 92.6470588,9.88235294 C96.9678747,9.88235294 100.470588,13.3850662 100.470588,17.7058822 L100.470588,17.7058822 Z M96.6472859,17.7058822 C96.6472859,15.2418803 94.9772882,13.4640016 92.6556893,13.4640016 C90.3340904,13.4640016 88.6468317,15.2634565 88.6468317,17.7058822 C88.6468317,20.1483079 90.3168294,21.9477628 92.6556893,21.9477628 C94.9945492,21.9477628 96.6688621,20.1483079 96.6688621,17.7058822 L96.6472859,17.7058822 Z" id="Shape" fill="#000091"></path>
                <path d="M102.941176,10.7058824 L107.746272,10.7058824 C111.101809,10.7058824 113.168381,12.4210015 113.168381,15.3218279 C113.232888,16.9737853 112.349524,18.5094703 110.91586,19.2377248 L115.294118,25.5294118 L111.038417,25.5294118 L107.450444,19.9158969 L106.60522,19.9158969 L106.60522,25.5294118 L102.966533,25.5294118 L102.941176,10.7058824 Z M106.579864,13.8167234 L106.579864,16.8050559 L107.970256,16.8050559 C108.367697,16.8347867 108.757755,16.6826735 109.037481,16.3888638 C109.317206,16.0950542 109.458489,15.6890742 109.424041,15.2780749 C109.444933,14.8764793 109.296954,14.4851699 109.018247,14.2050122 C108.73954,13.9248546 108.357374,13.7832589 107.970256,13.8167234 L106.579864,13.8167234 Z" id="Shape" fill="#E1000F"></path>
                <polygon id="Path" fill="#E1000F" points="116.117647 10.7058824 128.470588 10.7058824 128.470588 14.114244 124.177506 14.114244 124.177506 25.5294118 120.428128 25.5294118 120.428128 14.114244 116.117647 14.114244"></polygon>
            </g>
        </g>
    </g>
</svg>